# 3ds Max Wavefront OBJ Exporter v0.97b - (c)2007 guruware
# File Created: 03.12.2010 22:31:43

mtllib dice.mtl

#
# object ChamferBox01
#

v  -0.8970 0.8970 0.9742
v  -0.8970 -0.8970 0.9742
v  0.9042 -0.8970 0.9742
v  0.9042 0.8970 0.9742
v  -0.8970 0.9677 0.9449
v  -0.9470 0.9470 0.9449
v  -0.9677 0.8970 0.9449
v  -0.9677 -0.8970 0.9449
v  -0.9470 -0.9470 0.9449
v  -0.8970 -0.9677 0.9449
v  0.9042 -0.9677 0.9449
v  0.9542 -0.9470 0.9449
v  0.9749 -0.8970 0.9449
v  0.9749 0.8970 0.9449
v  0.9542 0.9470 0.9449
v  0.9042 0.9677 0.9449
v  -0.8970 0.9970 0.8742
v  -0.9677 0.9677 0.8742
v  -0.9970 0.8970 0.8742
v  -0.9970 -0.8970 0.8742
v  -0.9677 -0.9677 0.8742
v  -0.8970 -0.9970 0.8742
v  0.9042 -0.9970 0.8742
v  0.9749 -0.9677 0.8742
v  1.0042 -0.8970 0.8742
v  1.0042 0.8970 0.8742
v  0.9749 0.9677 0.8742
v  0.9042 0.9970 0.8742
v  -0.8970 0.9970 -0.9487
v  -0.9677 0.9677 -0.9487
v  -0.9970 0.8970 -0.9487
v  -0.9970 -0.8970 -0.9487
v  -0.9677 -0.9677 -0.9487
v  -0.8970 -0.9970 -0.9487
v  0.9042 -0.9970 -0.9487
v  0.9749 -0.9677 -0.9487
v  1.0042 -0.8970 -0.9487
v  1.0042 0.8970 -0.9487
v  0.9749 0.9677 -0.9487
v  0.9042 0.9970 -0.9487
v  -0.8970 0.9677 -1.0194
v  -0.9470 0.9470 -1.0194
v  -0.9677 0.8970 -1.0194
v  -0.9677 -0.8970 -1.0194
v  -0.9470 -0.9470 -1.0194
v  -0.8970 -0.9677 -1.0194
v  0.9042 -0.9677 -1.0194
v  0.9542 -0.9470 -1.0194
v  0.9749 -0.8970 -1.0194
v  0.9749 0.8970 -1.0194
v  0.9542 0.9470 -1.0194
v  0.9042 0.9677 -1.0194
v  -0.8970 0.8970 -1.0487
v  -0.8970 -0.8970 -1.0487
v  0.9042 -0.8970 -1.0487
v  0.9042 0.8970 -1.0487
# 56 vertices

vn -0.1657 0.1657 0.9721
vn -0.1657 -0.1657 0.9721
vn 0.1657 -0.1657 0.9721
vn 0.1657 0.1657 0.9721
vn -0.1448 0.7194 0.6794
vn -0.5294 0.5294 0.6630
vn -0.7194 0.1448 0.6794
vn -0.7194 -0.1448 0.6794
vn -0.5294 -0.5294 0.6630
vn -0.1448 -0.7194 0.6794
vn 0.1448 -0.7194 0.6794
vn 0.5294 -0.5294 0.6630
vn 0.7194 -0.1448 0.6794
vn 0.7194 0.1448 0.6794
vn 0.5294 0.5294 0.6630
vn 0.1448 0.7194 0.6794
vn -0.1877 0.9641 0.1877
vn -0.6947 0.6947 0.1866
vn -0.9641 0.1877 0.1877
vn -0.9641 -0.1877 0.1877
vn -0.6947 -0.6947 0.1866
vn -0.1877 -0.9641 0.1877
vn 0.1877 -0.9641 0.1877
vn 0.6947 -0.6947 0.1866
vn 0.9641 -0.1877 0.1877
vn 0.9641 0.1877 0.1877
vn 0.6947 0.6947 0.1866
vn 0.1877 0.9641 0.1877
vn -0.1877 0.9641 -0.1877
vn -0.6947 0.6947 -0.1866
vn -0.9641 0.1877 -0.1877
vn -0.9641 -0.1877 -0.1877
vn -0.6947 -0.6947 -0.1866
vn -0.1877 -0.9641 -0.1877
vn 0.1877 -0.9641 -0.1877
vn 0.6947 -0.6947 -0.1866
vn 0.9641 -0.1877 -0.1877
vn 0.9641 0.1877 -0.1877
vn 0.6947 0.6947 -0.1866
vn 0.1877 0.9641 -0.1877
vn -0.1448 0.7194 -0.6794
vn -0.5294 0.5294 -0.6630
vn -0.7194 0.1448 -0.6794
vn -0.7194 -0.1448 -0.6794
vn -0.5294 -0.5294 -0.6630
vn -0.1448 -0.7194 -0.6794
vn 0.1448 -0.7194 -0.6794
vn 0.5294 -0.5294 -0.6630
vn 0.7194 -0.1448 -0.6794
vn 0.7194 0.1448 -0.6794
vn 0.5294 0.5294 -0.6630
vn 0.1448 0.7194 -0.6794
vn -0.1657 0.1657 -0.9721
vn -0.1657 -0.1657 -0.9721
vn 0.1657 -0.1657 -0.9721
vn 0.1657 0.1657 -0.9721
# 56 vertex normals

vt -0.0130 0.6352 0.9995
vt -0.0130 0.3855 0.9995
vt 0.2367 0.3855 0.9995
vt 0.2367 0.6352 0.9995
vt 0.2419 0.6405 0.9995
vt 0.2419 0.6503 0.9850
vt 0.2350 0.6475 0.9850
vt 0.2321 0.6405 0.9850
vt 0.2321 0.3908 0.9850
vt 0.2419 0.3908 0.9995
vt 0.2350 0.3839 0.9850
vt 0.2419 0.3810 0.9850
vt 0.4917 0.3810 0.9850
vt 0.4917 0.3908 0.9995
vt 0.4986 0.3839 0.9850
vt 0.5015 0.3908 0.9850
vt 0.5015 0.6405 0.9850
vt 0.4917 0.6405 0.9995
vt 0.4986 0.6475 0.9850
vt 0.4917 0.6503 0.9850
vt 0.4917 0.6504 0.9848
vt 0.4917 0.6407 0.9995
vt 0.5015 0.6407 0.9848
vt 0.4986 0.6504 0.9744
vt 0.2350 0.6504 0.0255
vt 0.2321 0.6407 0.0151
vt 0.2420 0.6407 0.0005
vt 0.2420 0.6504 0.0151
vt 0.4916 0.6407 0.0005
vt 0.4916 0.6504 0.0151
vt 0.5015 0.6407 0.0151
vt 0.4986 0.6504 0.0255
vt 0.2350 0.6504 0.0256
vt 0.2321 0.6407 0.0152
vt 0.2419 0.6407 0.0005
vt 0.2419 0.6504 0.0152
vt 0.4917 0.6407 0.0005
vt 0.4917 0.6504 0.0152
vt 0.5015 0.6407 0.0152
vt 0.4986 0.6504 0.0256
vt 0.2350 0.6504 0.9745
vt 0.2321 0.6407 0.9849
vt 0.2420 0.6407 0.9995
vt 0.2420 0.6504 0.9849
vt 0.4916 0.6407 0.9995
vt 0.4916 0.6504 0.9849
vt 0.5015 0.6407 0.9849
vt 0.4986 0.6504 0.9745
vt 0.2350 0.6504 0.9744
vt 0.2321 0.6407 0.9848
vt 0.2419 0.6407 0.9995
vt 0.2419 0.6504 0.9848
vt 0.4917 0.3906 0.9995
vt 0.5015 0.3906 0.9848
vt 0.2321 0.3906 0.0151
vt 0.2420 0.3906 0.0005
vt 0.4916 0.3906 0.0005
vt 0.5015 0.3906 0.0151
vt 0.2321 0.3906 0.0152
vt 0.2419 0.3906 0.0005
vt 0.2419 0.3822 0.0005
vt 0.2419 0.1321 0.0005
vt 0.4917 0.1321 0.0005
vt 0.4917 0.3822 0.0005
vt 0.4917 0.3906 0.0005
vt 0.5015 0.3906 0.0152
vt 0.2321 0.3906 0.9849
vt 0.2420 0.3906 0.9995
vt 0.7537 0.6389 0.9995
vt 0.7537 0.3889 0.9995
vt 1.0034 0.3889 0.9995
vt 1.0034 0.6389 0.9995
vt 0.4916 0.3906 0.9995
vt 0.5015 0.3906 0.9849
vt 0.2321 0.3906 0.9848
vt 0.2419 0.3906 0.9995
vt 0.2419 0.9028 0.9995
vt 0.2419 0.6527 0.9995
vt 0.4917 0.6527 0.9995
vt 0.4917 0.9028 0.9995
vt 0.4917 0.3809 0.9848
vt 0.4986 0.3809 0.9744
vt 0.2350 0.3809 0.0255
vt 0.2420 0.3809 0.0151
vt 0.4916 0.3809 0.0151
vt 0.4986 0.3809 0.0255
vt 0.2350 0.3809 0.0256
vt 0.2419 0.3809 0.0152
vt 0.4917 0.3809 0.0152
vt 0.4986 0.3809 0.0256
vt 0.2350 0.3809 0.9745
vt 0.2420 0.3809 0.9849
vt 0.4916 0.3809 0.9849
vt 0.4986 0.3809 0.9745
vt 0.2350 0.3809 0.9744
vt 0.2419 0.3809 0.9848
vt 0.4917 0.6503 0.0150
vt 0.4917 0.6405 0.0005
vt 0.4986 0.6475 0.0150
vt 0.5015 0.6405 0.0150
vt 0.4917 0.3908 0.0005
vt 0.5015 0.3908 0.0150
vt 0.4986 0.3839 0.0150
vt 0.4917 0.3810 0.0150
vt 0.2419 0.3908 0.0005
vt 0.2419 0.3810 0.0150
vt 0.2350 0.3839 0.0150
vt 0.2321 0.3908 0.0150
vt 0.2419 0.6405 0.0005
vt 0.2321 0.6405 0.0150
vt 0.2350 0.6475 0.0150
vt 0.2419 0.6503 0.0150
vt 0.5022 0.6405 0.0005
vt 0.5022 0.3908 0.0005
vt 0.7520 0.3908 0.0005
vt 0.7520 0.6405 0.0005
# 116 texture coords

g ChamferBox01
usemtl 01___Default
s 1
f 1/1/1 2/2/2 3/3/3 4/4/4 
f 1/5/1 5/6/5 6/7/6 
f 1/5/1 6/7/6 7/8/7 
f 1/5/1 7/8/7 8/9/8 2/10/2 
f 2/10/2 8/9/8 9/11/9 
f 2/10/2 9/11/9 10/12/10 
f 2/10/2 10/12/10 11/13/11 3/14/3 
f 3/14/3 11/13/11 12/15/12 
f 3/14/3 12/15/12 13/16/13 
f 3/14/3 13/16/13 14/17/14 4/18/4 
f 4/18/4 14/17/14 15/19/15 
f 4/18/4 15/19/15 16/20/16 
f 4/18/4 16/20/16 5/6/5 1/5/1 
f 5/21/5 17/22/17 18/23/18 6/24/6 
f 6/25/6 18/26/18 19/27/19 7/28/7 
f 7/28/7 19/27/19 20/29/20 8/30/8 
f 8/30/8 20/29/20 21/31/21 9/32/9 
f 9/33/9 21/34/21 22/35/22 10/36/10 
f 10/36/10 22/35/22 23/37/23 11/38/11 
f 11/38/11 23/37/23 24/39/24 12/40/12 
f 12/41/12 24/42/24 25/43/25 13/44/13 
f 13/44/13 25/43/25 26/45/26 14/46/14 
f 14/46/14 26/45/26 27/47/27 15/48/15 
f 15/49/15 27/50/27 28/51/28 16/52/16 
f 16/52/16 28/51/28 17/22/17 5/21/5 
f 17/22/17 29/53/29 30/54/30 18/23/18 
f 18/26/18 30/55/30 31/56/31 19/27/19 
f 19/27/19 31/56/31 32/57/32 20/29/20 
f 20/29/20 32/57/32 33/58/33 21/31/21 
f 21/34/21 33/59/33 34/60/34 22/35/22 
f 22/61/22 34/62/34 35/63/35 23/64/23 
f 23/37/23 35/65/35 36/66/36 24/39/24 
f 24/42/24 36/67/36 37/68/37 25/43/25 
f 25/69/25 37/70/37 38/71/38 26/72/26 
f 26/45/26 38/73/38 39/74/39 27/47/27 
f 27/50/27 39/75/39 40/76/40 28/51/28 
f 28/77/28 40/78/40 29/79/29 17/80/17 
f 29/53/29 41/81/41 42/82/42 30/54/30 
f 30/55/30 42/83/42 43/84/43 31/56/31 
f 31/56/31 43/84/43 44/85/44 32/57/32 
f 32/57/32 44/85/44 45/86/45 33/58/33 
f 33/59/33 45/87/45 46/88/46 34/60/34 
f 34/60/34 46/88/46 47/89/47 35/65/35 
f 35/65/35 47/89/47 48/90/48 36/66/36 
f 36/67/36 48/91/48 49/92/49 37/68/37 
f 37/68/37 49/92/49 50/93/50 38/73/38 
f 38/73/38 50/93/50 51/94/51 39/74/39 
f 39/75/39 51/95/51 52/96/52 40/76/40 
f 40/76/40 52/96/52 41/81/41 29/53/29 
f 41/97/41 53/98/53 42/99/42 
f 42/99/42 53/98/53 43/100/43 
f 43/100/43 53/98/53 54/101/54 44/102/44 
f 44/102/44 54/101/54 45/103/45 
f 45/103/45 54/101/54 46/104/46 
f 46/104/46 54/101/54 55/105/55 47/106/47 
f 47/106/47 55/105/55 48/107/48 
f 48/107/48 55/105/55 49/108/49 
f 49/108/49 55/105/55 56/109/56 50/110/50 
f 50/110/50 56/109/56 51/111/51 
f 51/111/51 56/109/56 52/112/52 
f 52/112/52 56/109/56 53/98/53 41/97/41 
f 56/113/56 55/114/55 54/115/54 53/116/53 
# 46 polygons - 16 triangles

