# 3ds Max Wavefront OBJ Exporter v0.97b - (c)2007 guruware
# File Created: 07.03.2017 10:34:21

mtllib xx.mtl

#
# object Box003
#

v  8.7556 8.7556 8.7556
v  10.4993 6.7240 6.7240
v  10.5304 8.6438 3.6641
v  9.8439 9.8439 4.3713
v  10.5615 9.2981 -0.0000
v  10.1525 10.1525 -0.0000
v  10.5304 -3.6641 -8.6438
v  9.8439 -4.3713 -9.8439
v  10.1525 0.0000 -10.1525
v  10.5615 0.0000 -9.2981
v  10.4993 -6.7240 -6.7240
v  8.7556 -8.7556 -8.7556
v  10.5304 -8.6438 3.6641
v  9.8439 -9.8439 4.3713
v  10.1525 -10.1525 0.0000
v  10.5615 -9.2981 0.0000
v  10.4993 -6.7240 6.7240
v  8.7556 -8.7556 8.7556
v  10.5304 8.6438 -3.6641
v  9.8439 9.8439 -4.3713
v  10.4993 6.7240 -6.7240
v  8.7556 8.7556 -8.7556
v  10.5304 3.6641 8.6438
v  9.8439 4.3713 9.8439
v  10.1525 0.0000 10.1525
v  10.5615 0.0000 9.2981
v  9.8439 4.3713 -9.8439
v  10.5304 3.6641 -8.6438
v  9.8439 -4.3713 9.8439
v  10.5304 -3.6641 8.6438
v  9.8439 -9.8439 -4.3713
v  10.5304 -8.6438 -3.6641
v  3.6641 8.6438 10.5304
v  4.3713 9.8439 9.8439
v  0.0000 10.1525 10.1525
v  0.0000 9.2981 10.5615
v  6.7240 6.7240 10.4993
v  -8.7556 -8.7556 8.7556
v  -6.7240 -6.7240 10.4993
v  -8.6438 -3.6641 10.5304
v  -9.8439 -4.3713 9.8439
v  -9.2981 0.0000 10.5615
v  -10.1525 -0.0000 10.1525
v  6.7240 -6.7240 10.4993
v  3.6641 -8.6438 10.5304
v  4.3713 -9.8439 9.8439
v  0.0000 -9.2981 10.5615
v  0.0000 -10.1525 10.1525
v  -8.7556 8.7556 8.7556
v  -6.7240 6.7240 10.4993
v  -3.6641 8.6438 10.5304
v  -4.3713 9.8439 9.8439
v  8.6438 3.6641 10.5304
v  9.2981 0.0000 10.5615
v  -9.8439 4.3713 9.8439
v  -8.6438 3.6641 10.5304
v  8.6438 -3.6641 10.5304
v  -4.3713 -9.8439 9.8439
v  -3.6641 -8.6438 10.5304
v  6.7240 10.4993 6.7240
v  3.6641 10.5304 8.6438
v  0.0000 10.5615 9.2981
v  -8.6438 10.5304 -3.6641
v  -9.8439 9.8439 -4.3713
v  -10.1525 10.1525 0.0000
v  -9.2981 10.5615 0.0000
v  -6.7240 10.4993 -6.7240
v  -8.7556 8.7556 -8.7556
v  3.6641 10.5304 -8.6438
v  4.3713 9.8439 -9.8439
v  0.0000 10.1525 -10.1525
v  -0.0000 10.5615 -9.2981
v  6.7240 10.4993 -6.7240
v  -3.6641 10.5304 8.6438
v  -6.7240 10.4993 6.7240
v  8.6438 10.5304 3.6641
v  9.2981 10.5615 -0.0000
v  -9.8439 9.8439 4.3713
v  -8.6438 10.5304 3.6641
v  8.6438 10.5304 -3.6641
v  -4.3713 9.8439 -9.8439
v  -3.6641 10.5304 -8.6438
v  3.6641 -8.6438 -10.5304
v  4.3713 -9.8439 -9.8439
v  0.0000 -10.1525 -10.1525
v  0.0000 -9.2981 -10.5615
v  6.7240 -6.7240 -10.4993
v  -6.7240 6.7240 -10.4993
v  -8.6438 3.6641 -10.5304
v  -9.8439 4.3713 -9.8439
v  -9.2981 -0.0000 -10.5615
v  -10.1525 -0.0000 -10.1525
v  6.7240 6.7240 -10.4993
v  3.6641 8.6438 -10.5304
v  -0.0000 9.2981 -10.5615
v  -8.7556 -8.7556 -8.7556
v  -6.7240 -6.7240 -10.4993
v  -3.6641 -8.6438 -10.5304
v  -4.3713 -9.8439 -9.8439
v  8.6438 -3.6641 -10.5304
v  9.2981 0.0000 -10.5615
v  -9.8439 -4.3713 -9.8439
v  -8.6438 -3.6641 -10.5304
v  8.6438 3.6641 -10.5304
v  -3.6641 8.6438 -10.5304
v  6.7240 -10.4993 -6.7240
v  3.6641 -10.5304 -8.6438
v  0.0000 -10.5615 -9.2981
v  -8.6438 -10.5304 3.6641
v  -9.8439 -9.8439 4.3713
v  -10.1525 -10.1525 0.0000
v  -9.2981 -10.5615 0.0000
v  -6.7240 -10.4993 6.7240
v  3.6641 -10.5304 8.6438
v  0.0000 -10.5615 9.2981
v  6.7240 -10.4993 6.7240
v  -3.6641 -10.5304 -8.6438
v  -6.7240 -10.4993 -6.7240
v  8.6438 -10.5304 -3.6641
v  9.2981 -10.5615 0.0000
v  -9.8439 -9.8439 -4.3713
v  -8.6438 -10.5304 -3.6641
v  8.6438 -10.5304 3.6641
v  -3.6641 -10.5304 8.6438
v  -10.5304 3.6641 -8.6438
v  -10.5615 -0.0000 -9.2981
v  -10.4993 6.7240 -6.7240
v  -10.4993 -6.7240 6.7240
v  -10.5304 -8.6438 3.6641
v  -10.5615 -9.2981 0.0000
v  -10.4993 6.7240 6.7240
v  -10.5304 3.6641 8.6438
v  -10.5615 -0.0000 9.2981
v  -10.4993 -6.7240 -6.7240
v  -10.5304 -3.6641 -8.6438
v  -10.5304 8.6438 -3.6641
v  -10.5615 9.2981 0.0000
v  -10.5304 -8.6438 -3.6641
v  -10.5304 8.6438 3.6641
v  -10.5304 -3.6641 8.6438
v  10.6133 0.0000 0.0000
v  0.0000 0.0000 10.6133
v  -0.0000 10.6133 -0.0000
v  -0.0000 0.0000 -10.6133
v  0.0000 -10.6133 0.0000
v  -10.6133 0.0232 0.0559
# 146 vertices

vn 0.5774 0.5774 0.5774
vn 0.9526 0.2221 0.2078
vn 0.9634 0.2439 0.1111
vn 0.7001 0.6754 0.2317
vn 0.9687 0.2483 0.0024
vn 0.7081 0.7061 0.0018
vn 0.9660 -0.0975 -0.2393
vn 0.6756 -0.2326 -0.6996
vn 0.7081 0.0018 -0.7061
vn 0.9687 0.0024 -0.2483
vn 0.9526 -0.2221 -0.2078
vn 0.5774 -0.5774 -0.5774
vn 0.9660 -0.2393 0.0975
vn 0.6898 -0.6898 0.2200
vn 0.7081 -0.7061 -0.0018
vn 0.9687 -0.2483 -0.0024
vn 0.9526 -0.2078 0.2221
vn 0.5773 -0.5712 0.5835
vn 0.9660 0.2393 -0.0975
vn 0.6898 0.6898 -0.2200
vn 0.9526 0.2078 -0.2221
vn 0.5773 0.5712 -0.5835
vn 0.9660 0.0975 0.2393
vn 0.6756 0.2326 0.6996
vn 0.7081 -0.0018 0.7061
vn 0.9687 -0.0024 0.2483
vn 0.6859 0.2446 -0.6853
vn 0.9634 0.1111 -0.2439
vn 0.6859 -0.2446 0.6853
vn 0.9634 -0.1111 0.2439
vn 0.7001 -0.6754 -0.2317
vn 0.9634 -0.2439 -0.1111
vn 0.0975 0.2393 0.9660
vn 0.2326 0.6996 0.6756
vn -0.0018 0.7061 0.7081
vn -0.0024 0.2483 0.9687
vn 0.2221 0.2078 0.9526
vn -0.5806 -0.5744 0.5770
vn -0.2221 -0.2078 0.9526
vn -0.2439 -0.1111 0.9634
vn -0.6754 -0.2317 0.7001
vn -0.2483 -0.0024 0.9687
vn -0.7071 0.0000 0.7071
vn 0.2190 -0.2190 0.9508
vn 0.1111 -0.2439 0.9634
vn 0.2317 -0.6754 0.7001
vn 0.0024 -0.2483 0.9687
vn 0.0000 -0.7071 0.7071
vn -0.5803 0.5777 0.5741
vn -0.2078 0.2221 0.9526
vn -0.1111 0.2439 0.9634
vn -0.2317 0.6754 0.7001
vn 0.2420 0.1124 0.9637
vn 0.2469 0.0000 0.9690
vn -0.7001 0.2317 0.6754
vn -0.2393 0.0975 0.9660
vn 0.2420 -0.1124 0.9637
vn -0.2191 -0.6902 0.6896
vn -0.0975 -0.2393 0.9660
vn 0.2078 0.9526 0.2221
vn 0.1124 0.9637 0.2420
vn -0.0000 0.9690 0.2469
vn -0.2393 0.9660 -0.0975
vn -0.6996 0.6756 -0.2326
vn -0.7061 0.7081 0.0018
vn -0.2483 0.9687 0.0024
vn -0.2078 0.9526 -0.2221
vn -0.5741 0.5777 -0.5803
vn 0.0975 0.9660 -0.2393
vn 0.2326 0.6756 -0.6996
vn -0.0018 0.7081 -0.7061
vn -0.0024 0.9687 -0.2483
vn 0.2109 0.9545 -0.2109
vn -0.0975 0.9660 0.2393
vn -0.2221 0.9526 0.2078
vn 0.2393 0.9660 0.0975
vn 0.2469 0.9690 -0.0000
vn -0.6853 0.6859 0.2446
vn -0.2439 0.9634 0.1111
vn 0.2393 0.9660 -0.0975
vn -0.2446 0.6859 -0.6853
vn -0.1111 0.9634 -0.2439
vn 0.0975 -0.2393 -0.9660
vn 0.2326 -0.6996 -0.6756
vn -0.0018 -0.7061 -0.7081
vn -0.0024 -0.2483 -0.9687
vn 0.2221 -0.2078 -0.9526
vn -0.2190 0.2190 -0.9508
vn -0.2439 0.1111 -0.9634
vn -0.6754 0.2317 -0.7001
vn -0.2483 0.0024 -0.9687
vn -0.7071 -0.0000 -0.7071
vn 0.2190 0.2190 -0.9508
vn 0.1124 0.2420 -0.9637
vn -0.0000 0.2469 -0.9690
vn -0.5803 -0.5777 -0.5741
vn -0.2078 -0.2221 -0.9526
vn -0.1111 -0.2439 -0.9634
vn -0.2317 -0.6754 -0.7001
vn 0.2420 -0.1124 -0.9637
vn 0.2469 0.0000 -0.9690
vn -0.7001 -0.2317 -0.6754
vn -0.2393 -0.0975 -0.9660
vn 0.2420 0.1124 -0.9637
vn -0.1124 0.2420 -0.9637
vn 0.2078 -0.9526 -0.2221
vn 0.1124 -0.9637 -0.2420
vn 0.0000 -0.9690 -0.2469
vn -0.2393 -0.9660 0.0975
vn -0.6996 -0.6756 0.2326
vn -0.7061 -0.7081 -0.0018
vn -0.2483 -0.9687 -0.0024
vn -0.2109 -0.9545 0.2109
vn 0.0975 -0.9660 0.2393
vn -0.0024 -0.9687 0.2483
vn 0.2109 -0.9545 0.2109
vn -0.0975 -0.9660 -0.2393
vn -0.2221 -0.9526 -0.2078
vn 0.2393 -0.9660 -0.0975
vn 0.2469 -0.9690 0.0000
vn -0.6853 -0.6859 -0.2446
vn -0.2439 -0.9634 -0.1111
vn 0.2393 -0.9660 0.0975
vn -0.0961 -0.9657 0.2412
vn -0.9660 0.0975 -0.2393
vn -0.9687 -0.0024 -0.2483
vn -0.9526 0.2221 -0.2078
vn -0.9526 -0.2221 0.2079
vn -0.9637 -0.2421 0.1124
vn -0.9690 -0.2469 -0.0000
vn -0.9508 0.2190 0.2190
vn -0.9634 0.1111 0.2439
vn -0.9687 0.0024 0.2483
vn -0.9508 -0.2190 -0.2190
vn -0.9634 -0.1110 -0.2439
vn -0.9637 0.2420 -0.1124
vn -0.9690 0.2469 -0.0000
vn -0.9637 -0.2420 -0.1124
vn -0.9637 0.2421 0.1124
vn -0.9660 -0.0975 0.2393
vn 1.0000 0.0000 -0.0000
vn 0.0000 0.0000 1.0000
vn -0.0000 1.0000 -0.0000
vn -0.0000 -0.0000 -1.0000
vn 0.0000 -1.0000 -0.0000
vn -1.0000 0.0000 0.0001
# 146 vertex normals

vt 0.6386 0.6386 0.0000
vt 0.6065 0.6065 0.0000
vt 0.6369 0.5580 0.0000
vt 0.6559 0.5692 0.0000
vt 0.6472 0.5000 0.0000
vt 0.6608 0.5000 0.0000
vt 0.4420 0.3631 0.0000
vt 0.4308 0.3441 0.0000
vt 0.5000 0.3393 0.0000
vt 0.5000 0.3528 0.0000
vt 0.3935 0.3935 0.0000
vt 0.3614 0.3614 0.0000
vt 0.3631 0.5580 0.0000
vt 0.3441 0.5692 0.0000
vt 0.3393 0.5000 0.0000
vt 0.3528 0.5000 0.0000
vt 0.3935 0.6065 0.0000
vt 0.3614 0.6386 0.0000
vt 0.6369 0.4420 0.0000
vt 0.6559 0.4308 0.0000
vt 0.6065 0.3935 0.0000
vt 0.6386 0.3614 0.0000
vt 0.5580 0.6369 0.0000
vt 0.5692 0.6559 0.0000
vt 0.5000 0.6607 0.0000
vt 0.5000 0.6472 0.0000
vt 0.5692 0.3441 0.0000
vt 0.5580 0.3631 0.0000
vt 0.4308 0.6559 0.0000
vt 0.4420 0.6369 0.0000
vt 0.3441 0.4308 0.0000
vt 0.3631 0.4420 0.0000
vt 0.2208 0.2996 0.0000
vt 0.2320 0.3186 0.0000
vt 0.1628 0.3235 0.0000
vt 0.1628 0.3100 0.0000
vt 0.2692 0.2692 0.0000
vt 0.3014 0.3014 0.0000
vt 0.0241 0.0241 0.0000
vt 0.0563 0.0563 0.0000
vt 0.0259 0.1047 0.0000
vt 0.0069 0.0935 0.0000
vt 0.0155 0.1627 0.0000
vt 0.0020 0.1627 0.0000
vt 0.3014 0.0241 0.0000
vt 0.2692 0.0563 0.0000
vt 0.2208 0.0259 0.0000
vt 0.2320 0.0069 0.0000
vt 0.1628 0.0155 0.0000
vt 0.1628 0.0020 0.0000
vt 0.0241 0.3014 0.0000
vt 0.0563 0.2692 0.0000
vt 0.1047 0.2996 0.0000
vt 0.0935 0.3186 0.0000
vt 0.2996 0.2208 0.0000
vt 0.3186 0.2320 0.0000
vt 0.3235 0.1628 0.0000
vt 0.3100 0.1628 0.0000
vt 0.0069 0.2320 0.0000
vt 0.0259 0.2208 0.0000
vt 0.3186 0.0935 0.0000
vt 0.2996 0.1047 0.0000
vt 0.0935 0.0069 0.0000
vt 0.1047 0.0259 0.0000
vt 0.6986 0.3014 0.0000
vt 0.7308 0.2692 0.0000
vt 0.7792 0.2996 0.0000
vt 0.7680 0.3186 0.0000
vt 0.8373 0.3235 0.0000
vt 0.8373 0.3100 0.0000
vt 0.9741 0.1047 0.0000
vt 0.9931 0.0935 0.0000
vt 0.9980 0.1627 0.0000
vt 0.9845 0.1627 0.0000
vt 0.9437 0.0563 0.0000
vt 0.9759 0.0241 0.0000
vt 0.7792 0.0259 0.0000
vt 0.7680 0.0069 0.0000
vt 0.8373 0.0020 0.0000
vt 0.8373 0.0155 0.0000
vt 0.7308 0.0563 0.0000
vt 0.6986 0.0241 0.0000
vt 0.8953 0.2996 0.0000
vt 0.9065 0.3186 0.0000
vt 0.9437 0.2692 0.0000
vt 0.9759 0.3014 0.0000
vt 0.7004 0.2208 0.0000
vt 0.6814 0.2320 0.0000
vt 0.6765 0.1627 0.0000
vt 0.6900 0.1627 0.0000
vt 0.9931 0.2320 0.0000
vt 0.9741 0.2208 0.0000
vt 0.7004 0.1047 0.0000
vt 0.6814 0.0935 0.0000
vt 0.9065 0.0069 0.0000
vt 0.8953 0.0259 0.0000
vt 0.6369 0.7792 0.0000
vt 0.6559 0.7680 0.0000
vt 0.6607 0.8372 0.0000
vt 0.6472 0.8372 0.0000
vt 0.6065 0.7308 0.0000
vt 0.6386 0.6986 0.0000
vt 0.3614 0.9759 0.0000
vt 0.3935 0.9437 0.0000
vt 0.4420 0.9741 0.0000
vt 0.4308 0.9931 0.0000
vt 0.5000 0.9845 0.0000
vt 0.5000 0.9980 0.0000
vt 0.3614 0.6986 0.0000
vt 0.3935 0.7308 0.0000
vt 0.3631 0.7792 0.0000
vt 0.3441 0.7680 0.0000
vt 0.3393 0.8372 0.0000
vt 0.3528 0.8372 0.0000
vt 0.6386 0.9759 0.0000
vt 0.6065 0.9437 0.0000
vt 0.6369 0.8953 0.0000
vt 0.6559 0.9065 0.0000
vt 0.5580 0.7004 0.0000
vt 0.5692 0.6814 0.0000
vt 0.5000 0.6765 0.0000
vt 0.5000 0.6900 0.0000
vt 0.5692 0.9931 0.0000
vt 0.5580 0.9741 0.0000
vt 0.4308 0.6814 0.0000
vt 0.4420 0.7004 0.0000
vt 0.3441 0.9065 0.0000
vt 0.3631 0.8953 0.0000
vt 0.0241 0.3614 0.0000
vt 0.0563 0.3935 0.0000
vt 0.0259 0.4420 0.0000
vt 0.0069 0.4308 0.0000
vt 0.0020 0.5000 0.0000
vt 0.0155 0.5000 0.0000
vt 0.2208 0.6369 0.0000
vt 0.2320 0.6559 0.0000
vt 0.1627 0.6607 0.0000
vt 0.1627 0.6472 0.0000
vt 0.2692 0.6065 0.0000
vt 0.3014 0.6386 0.0000
vt 0.2996 0.4420 0.0000
vt 0.3186 0.4308 0.0000
vt 0.3235 0.5000 0.0000
vt 0.3100 0.5000 0.0000
vt 0.2692 0.3935 0.0000
vt 0.3014 0.3614 0.0000
vt 0.0259 0.5580 0.0000
vt 0.0069 0.5692 0.0000
vt 0.0563 0.6065 0.0000
vt 0.0241 0.6386 0.0000
vt 0.1047 0.3631 0.0000
vt 0.0935 0.3441 0.0000
vt 0.1627 0.3393 0.0000
vt 0.1627 0.3528 0.0000
vt 0.0935 0.6559 0.0000
vt 0.1047 0.6369 0.0000
vt 0.2208 0.3631 0.0000
vt 0.2320 0.3441 0.0000
vt 0.3186 0.5692 0.0000
vt 0.2996 0.5580 0.0000
vt 0.4420 0.0259 0.0000
vt 0.4308 0.0069 0.0000
vt 0.5000 0.0020 0.0000
vt 0.5000 0.0155 0.0000
vt 0.3935 0.0563 0.0000
vt 0.3614 0.0241 0.0000
vt 0.6386 0.3014 0.0000
vt 0.6065 0.2692 0.0000
vt 0.6369 0.2208 0.0000
vt 0.6559 0.2320 0.0000
vt 0.6608 0.1627 0.0000
vt 0.6472 0.1627 0.0000
vt 0.3614 0.3014 0.0000
vt 0.3935 0.2692 0.0000
vt 0.4420 0.2996 0.0000
vt 0.4308 0.3186 0.0000
vt 0.5000 0.3100 0.0000
vt 0.5000 0.3235 0.0000
vt 0.6386 0.0241 0.0000
vt 0.6065 0.0563 0.0000
vt 0.5580 0.0259 0.0000
vt 0.5692 0.0069 0.0000
vt 0.3631 0.1047 0.0000
vt 0.3441 0.0935 0.0000
vt 0.3393 0.1627 0.0000
vt 0.3528 0.1628 0.0000
vt 0.6559 0.0935 0.0000
vt 0.6369 0.1047 0.0000
vt 0.3441 0.2320 0.0000
vt 0.3631 0.2208 0.0000
vt 0.5692 0.3186 0.0000
vt 0.5580 0.2996 0.0000
vt 0.5000 0.5000 0.0000
vt 0.1628 0.1628 0.0000
vt 0.8373 0.1627 0.0000
vt 0.5000 0.8373 0.0000
vt 0.1627 0.5000 0.0000
vt 0.4996 0.1636 0.0000
# 198 texture coords

g Box003
usemtl 01___Default
s 1
f 1/1/1 2/2/2 3/3/3 
f 3/3/3 4/4/4 1/1/1 
f 5/5/5 6/6/6 4/4/4 
f 4/4/4 3/3/3 5/5/5 
f 7/7/7 8/8/8 9/9/9 
f 9/9/9 10/10/10 7/7/7 
f 11/11/11 12/12/12 8/8/8 
f 8/8/8 7/7/7 11/11/11 
f 13/13/13 14/14/14 15/15/15 
f 15/15/15 16/16/16 13/13/13 
f 17/17/17 18/18/18 14/14/14 
f 14/14/14 13/13/13 17/17/17 
f 19/19/19 20/20/20 6/6/6 
f 6/6/6 5/5/5 19/19/19 
f 21/21/21 22/22/22 20/20/20 
f 20/20/20 19/19/19 21/21/21 
f 23/23/23 24/24/24 25/25/25 
f 25/25/25 26/26/26 23/23/23 
f 2/2/2 1/1/1 24/24/24 
f 24/24/24 23/23/23 2/2/2 
f 27/27/27 28/28/28 10/10/10 
f 10/10/10 9/9/9 27/27/27 
f 22/22/22 21/21/21 28/28/28 
f 28/28/28 27/27/27 22/22/22 
f 29/29/29 30/30/30 26/26/26 
f 26/26/26 25/25/25 29/29/29 
f 18/18/18 17/17/17 30/30/30 
f 30/30/30 29/29/29 18/18/18 
f 31/31/31 32/32/32 16/16/16 
f 16/16/16 15/15/15 31/31/31 
f 12/12/12 11/11/11 32/32/32 
f 32/32/32 31/31/31 12/12/12 
f 33/33/33 34/34/34 35/35/35 
f 35/35/35 36/36/36 33/33/33 
f 37/37/37 1/38/1 34/34/34 
f 34/34/34 33/33/33 37/37/37 
f 38/39/38 39/40/39 40/41/40 
f 40/41/40 41/42/41 38/39/38 
f 42/43/42 43/44/43 41/42/41 
f 41/42/41 40/41/40 42/43/42 
f 18/45/18 44/46/44 45/47/45 
f 45/47/45 46/48/46 18/45/18 
f 47/49/47 48/50/48 46/48/46 
f 46/48/46 45/47/45 47/49/47 
f 49/51/49 50/52/50 51/53/51 
f 51/53/51 52/54/52 49/51/49 
f 36/36/36 35/35/35 52/54/52 
f 52/54/52 51/53/51 36/36/36 
f 1/38/1 37/37/37 53/55/53 
f 53/55/53 24/56/24 1/38/1 
f 25/57/25 24/56/24 53/55/53 
f 53/55/53 54/58/54 25/57/25 
f 50/52/50 49/51/49 55/59/55 
f 55/59/55 56/60/56 50/52/50 
f 43/44/43 42/43/42 56/60/56 
f 56/60/56 55/59/55 43/44/43 
f 18/45/18 29/61/29 57/62/57 
f 57/62/57 44/46/44 18/45/18 
f 25/57/25 54/58/54 57/62/57 
f 57/62/57 29/61/29 25/57/25 
f 39/40/39 38/39/38 58/63/58 
f 58/63/58 59/64/59 39/40/39 
f 48/50/48 47/49/47 59/64/59 
f 59/64/59 58/63/58 48/50/48 
f 1/65/1 60/66/60 61/67/61 
f 61/67/61 34/68/34 1/65/1 
f 35/69/35 34/68/34 61/67/61 
f 61/67/61 62/70/62 35/69/35 
f 63/71/63 64/72/64 65/73/65 
f 65/73/65 66/74/66 63/71/63 
f 67/75/67 68/76/68 64/72/64 
f 64/72/64 63/71/63 67/75/67 
f 69/77/69 70/78/70 71/79/71 
f 71/79/71 72/80/72 69/77/69 
f 73/81/73 22/82/22 70/78/70 
f 70/78/70 69/77/69 73/81/73 
f 74/83/74 52/84/52 35/69/35 
f 35/69/35 62/70/62 74/83/74 
f 75/85/75 49/86/49 52/84/52 
f 52/84/52 74/83/74 75/85/75 
f 76/87/76 4/88/4 6/89/6 
f 6/89/6 77/90/77 76/87/76 
f 60/66/60 1/65/1 4/88/4 
f 4/88/4 76/87/76 60/66/60 
f 78/91/78 79/92/79 66/74/66 
f 66/74/66 65/73/65 78/91/78 
f 49/86/49 75/85/75 79/92/79 
f 79/92/79 78/91/78 49/86/49 
f 80/93/80 77/90/77 6/89/6 
f 6/89/6 20/94/20 80/93/80 
f 73/81/73 80/93/80 20/94/20 
f 20/94/20 22/82/22 73/81/73 
f 81/95/81 82/96/82 72/80/72 
f 72/80/72 71/79/71 81/95/81 
f 68/76/68 67/75/67 82/96/82 
f 82/96/82 81/95/81 68/76/68 
f 83/97/83 84/98/84 85/99/85 
f 85/99/85 86/100/86 83/97/83 
f 87/101/87 12/102/12 84/98/84 
f 84/98/84 83/97/83 87/101/87 
f 68/103/68 88/104/88 89/105/89 
f 89/105/89 90/106/90 68/103/68 
f 91/107/91 92/108/92 90/106/90 
f 90/106/90 89/105/89 91/107/91 
f 22/109/22 93/110/93 94/111/94 
f 94/111/94 70/112/70 22/109/22 
f 71/113/71 70/112/70 94/111/94 
f 94/111/94 95/114/95 71/113/71 
f 96/115/96 97/116/97 98/117/98 
f 98/117/98 99/118/99 96/115/96 
f 86/100/86 85/99/85 99/118/99 
f 99/118/99 98/117/98 86/100/86 
f 12/102/12 87/101/87 100/119/100 
f 100/119/100 8/120/8 12/102/12 
f 9/121/9 8/120/8 100/119/100 
f 100/119/100 101/122/101 9/121/9 
f 97/116/97 96/115/96 102/123/102 
f 102/123/102 103/124/103 97/116/97 
f 92/108/92 91/107/91 103/124/103 
f 103/124/103 102/123/102 92/108/92 
f 22/109/22 27/125/27 104/126/104 
f 104/126/104 93/110/93 22/109/22 
f 9/121/9 101/122/101 104/126/104 
f 104/126/104 27/125/27 9/121/9 
f 68/103/68 81/127/81 105/128/105 
f 105/128/105 88/104/88 68/103/68 
f 71/113/71 95/114/95 105/128/105 
f 105/128/105 81/127/81 71/113/71 
f 12/129/12 106/130/106 107/131/107 
f 107/131/107 84/132/84 12/129/12 
f 85/133/85 84/132/84 107/131/107 
f 107/131/107 108/134/108 85/133/85 
f 109/135/109 110/136/110 111/137/111 
f 111/137/111 112/138/112 109/135/109 
f 113/139/113 38/140/38 110/136/110 
f 110/136/110 109/135/109 113/139/113 
f 114/141/114 46/142/46 48/143/48 
f 48/143/48 115/144/115 114/141/114 
f 116/145/116 18/146/18 46/142/46 
f 46/142/46 114/141/114 116/145/116 
f 117/147/117 99/148/99 85/133/85 
f 85/133/85 108/134/108 117/147/117 
f 118/149/118 96/150/96 99/148/99 
f 99/148/99 117/147/117 118/149/118 
f 119/151/119 31/152/31 15/153/15 
f 15/153/15 120/154/120 119/151/119 
f 106/130/106 12/129/12 31/152/31 
f 31/152/31 119/151/119 106/130/106 
f 121/155/121 122/156/122 112/138/112 
f 112/138/112 111/137/111 121/155/121 
f 96/150/96 118/149/118 122/156/122 
f 122/156/122 121/155/121 96/150/96 
f 123/157/123 120/154/120 15/153/15 
f 15/153/15 14/158/14 123/157/123 
f 116/145/116 123/157/123 14/158/14 
f 14/158/14 18/146/18 116/145/116 
f 58/159/58 124/160/124 115/144/115 
f 115/144/115 48/143/48 58/159/58 
f 113/139/113 124/160/124 58/159/58 
f 58/159/58 38/140/38 113/139/113 
f 125/161/125 90/162/90 92/163/92 
f 92/163/92 126/164/126 125/161/125 
f 127/165/127 68/166/68 90/162/90 
f 90/162/90 125/161/125 127/165/127 
f 38/167/38 128/168/128 129/169/129 
f 129/169/129 110/170/110 38/167/38 
f 111/171/111 110/170/110 129/169/129 
f 129/169/129 130/172/130 111/171/111 
f 49/173/49 131/174/131 132/175/132 
f 132/175/132 55/176/55 49/173/49 
f 133/177/133 43/178/43 55/176/55 
f 55/176/55 132/175/132 133/177/133 
f 96/179/96 134/180/134 135/181/135 
f 135/181/135 102/182/102 96/179/96 
f 126/164/126 92/163/92 102/182/102 
f 102/182/102 135/181/135 126/164/126 
f 68/166/68 127/165/127 136/183/136 
f 136/183/136 64/184/64 68/166/68 
f 65/185/65 64/184/64 136/183/136 
f 136/183/136 137/186/137 65/185/65 
f 96/179/96 121/187/121 138/188/138 
f 138/188/138 134/180/134 96/179/96 
f 111/171/111 130/172/130 138/188/138 
f 138/188/138 121/187/121 111/171/111 
f 49/173/49 78/189/78 139/190/139 
f 139/190/139 131/174/131 49/173/49 
f 65/185/65 137/186/137 139/190/139 
f 139/190/139 78/189/78 65/185/65 
f 128/168/128 38/167/38 41/191/41 
f 41/191/41 140/192/140 128/168/128 
f 43/178/43 133/177/133 140/192/140 
f 140/192/140 41/191/41 43/178/43 
f 11/11/11 141/193/141 32/32/32 
f 21/21/21 141/193/141 28/28/28 
f 2/2/2 141/193/141 3/3/3 
f 17/17/17 141/193/141 30/30/30 
f 26/26/26 141/193/141 23/23/23 
f 5/5/5 141/193/141 19/19/19 
f 16/16/16 141/193/141 13/13/13 
f 10/10/10 141/193/141 7/7/7 
f 39/40/39 59/64/59 142/194/142 
f 59/64/59 47/49/47 142/194/142 
f 50/52/50 56/60/56 142/194/142 
f 56/60/56 42/43/42 142/194/142 
f 37/37/37 33/33/33 142/194/142 
f 33/33/33 36/36/36 142/194/142 
f 44/46/44 57/62/57 142/194/142 
f 57/62/57 54/58/54 142/194/142 
f 54/58/54 53/55/53 142/194/142 
f 53/55/53 37/37/37 142/194/142 
f 36/36/36 51/53/51 142/194/142 
f 51/53/51 50/52/50 142/194/142 
f 47/49/47 45/47/45 142/194/142 
f 45/47/45 44/46/44 142/194/142 
f 42/43/42 40/41/40 142/194/142 
f 40/41/40 39/40/39 142/194/142 
f 72/80/72 82/96/82 143/195/143 
f 67/75/67 143/195/143 82/96/82 
f 66/74/66 79/92/79 143/195/143 
f 75/85/75 143/195/143 79/92/79 
f 62/70/62 61/67/61 143/195/143 
f 60/66/60 143/195/143 61/67/61 
f 77/90/77 80/93/80 143/195/143 
f 73/81/73 143/195/143 80/93/80 
f 60/66/60 76/87/76 143/195/143 
f 77/90/77 143/195/143 76/87/76 
f 75/85/75 74/83/74 143/195/143 
f 62/70/62 143/195/143 74/83/74 
f 73/81/73 69/77/69 143/195/143 
f 72/80/72 143/195/143 69/77/69 
f 67/75/67 63/71/63 143/195/143 
f 66/74/66 143/195/143 63/71/63 
f 88/104/88 105/128/105 144/196/144 
f 105/128/105 95/114/95 144/196/144 
f 97/116/97 103/124/103 144/196/144 
f 103/124/103 91/107/91 144/196/144 
f 87/101/87 83/97/83 144/196/144 
f 83/97/83 86/100/86 144/196/144 
f 93/110/93 104/126/104 144/196/144 
f 104/126/104 101/122/101 144/196/144 
f 101/122/101 100/119/100 144/196/144 
f 100/119/100 87/101/87 144/196/144 
f 86/100/86 98/117/98 144/196/144 
f 98/117/98 97/116/97 144/196/144 
f 95/114/95 94/111/94 144/196/144 
f 94/111/94 93/110/93 144/196/144 
f 91/107/91 89/105/89 144/196/144 
f 89/105/89 88/104/88 144/196/144 
f 115/144/115 124/160/124 145/197/145 
f 113/139/113 145/197/145 124/160/124 
f 112/138/112 122/156/122 145/197/145 
f 118/149/118 145/197/145 122/156/122 
f 108/134/108 107/131/107 145/197/145 
f 106/130/106 145/197/145 107/131/107 
f 120/154/120 123/157/123 145/197/145 
f 116/145/116 145/197/145 123/157/123 
f 106/130/106 119/151/119 145/197/145 
f 120/154/120 145/197/145 119/151/119 
f 118/149/118 117/147/117 145/197/145 
f 108/134/108 145/197/145 117/147/117 
f 116/145/116 114/141/114 145/197/145 
f 115/144/115 145/197/145 114/141/114 
f 113/139/113 109/135/109 145/197/145 
f 112/138/112 145/197/145 109/135/109 
f 128/168/128 140/192/140 146/198/146 
f 140/192/140 133/177/133 146/198/146 
f 134/180/134 138/188/138 146/198/146 
f 138/188/138 130/172/130 146/198/146 
f 127/165/127 125/161/125 146/198/146 
f 125/161/125 126/164/126 146/198/146 
f 131/174/131 139/190/139 146/198/146 
f 139/190/139 137/186/137 146/198/146 
f 137/186/137 136/183/136 146/198/146 
f 136/183/136 127/165/127 146/198/146 
f 126/164/126 135/181/135 146/198/146 
f 135/181/135 134/180/134 146/198/146 
f 133/177/133 132/175/132 146/198/146 
f 132/175/132 131/174/131 146/198/146 
f 130/172/130 129/169/129 146/198/146 
f 129/169/129 128/168/128 146/198/146 
f 141/193/141 11/11/11 7/7/7 
f 141/193/141 16/16/16 32/32/32 
f 141/193/141 17/17/17 13/13/13 
f 141/193/141 26/26/26 30/30/30 
f 141/193/141 2/2/2 23/23/23 
f 141/193/141 5/5/5 3/3/3 
f 141/193/141 21/21/21 19/19/19 
f 141/193/141 10/10/10 28/28/28 
# 288 faces

